<!-- This Source Code Form is subject to the terms of the Mozilla Public
   - License, v. 2.0. If a copy of the MPL was not distributed with this
   - file, You can obtain one at http://mozilla.org/MPL/2.0/. -->

<svg width="310" height="744" viewBox="0 0 310 744" fill="none" xmlns="http://www.w3.org/2000/svg">
<g clip-path="url(#clip0_3183_16564)">
<rect width="310" height="744" fill="url(#paint0_radial_3183_16564)"/>
<g style="mix-blend-mode:darken">
<mask id="mask0_3183_16564" style="mask-type:alpha" maskUnits="userSpaceOnUse" x="-416" y="259" width="706" height="706">
<circle cx="352.641" cy="352.641" r="352.641" transform="matrix(-1 0 0 1 289.344 259.656)" fill="url(#paint1_radial_3183_16564)"/>
</mask>
<g mask="url(#mask0_3183_16564)">
<g filter="url(#filter0_i_3183_16564)">
<circle cx="352.641" cy="352.641" r="352.641" transform="matrix(-1 0 0 1 289.344 259.946)" fill="url(#paint2_radial_3183_16564)"/>
<circle cx="352.641" cy="352.641" r="352.641" transform="matrix(-1 0 0 1 289.344 259.946)" fill="white" fill-opacity="0.6" style="mix-blend-mode:screen"/>
</g>
<g opacity="0.3" filter="url(#filter1_f_3183_16564)">
<path d="M-156.289 271.006C-148.853 269.52 -141.427 268.054 -133.977 266.792C-111.097 262.806 -87.8471 261.427 -64.7888 264.177C-64.7888 264.177 -64.7888 264.177 -64.7888 264.177C48.303 276.641 137.958 358.204 172.041 446.594C174.432 452.515 176.625 458.476 178.628 464.472C184.498 480.329 196.091 492.155 212.217 496.577C228.264 501.044 247.527 497.742 264.407 488.171C281.287 478.599 294.009 463.763 298.414 447.699C302.898 431.59 298.7 415.57 288.106 402.391C282.627 395.192 276.918 388.231 270.998 381.515C181.807 279.671 48.839 240.851 -64.7678 254.421C-64.7677 254.421 -64.7677 254.421 -64.7677 254.421C-88.2776 256.941 -111.643 259.385 -134.355 264.945C-141.74 266.718 -149.05 268.746 -156.289 271.006Z" fill="url(#paint3_radial_3183_16564)"/>
</g>
<g opacity="0.08" filter="url(#filter2_f_3183_16564)" style="mix-blend-mode:plus-lighter">
<path d="M-291.839 715.898C-285.313 727.983 -277.864 739.459 -269.614 750.212C-219.953 815.504 -140.49 852.012 -63.0461 848.855C-4.97473 847.121 51.1158 824.034 93.2373 785.217C140.04 742.598 174.821 682.99 180.139 615.384C182.782 583.203 178.591 549.865 166.764 519.015C161.975 506.482 155.961 494.381 148.803 482.995C148.675 482.792 145.244 484.666 138.525 488.646C145.121 484.473 151.717 480.3 158.313 476.128C151.852 480.513 148.675 482.792 148.803 482.995C155.959 494.38 162.415 506.212 168.07 518.465C181.987 548.574 191.005 581.396 193.591 615.384C199.714 685.799 174.01 762.88 118.734 813.021C69.8555 858.232 2.80595 883.08 -63.0461 880.805C-151.325 879.089 -234.531 827.36 -274.838 753.642C-281.614 741.51 -287.305 728.862 -291.839 715.898Z" fill="white"/>
</g>
<g opacity="0.18" filter="url(#filter3_f_3183_16564)">
<path d="M-133.587 926.66C-433.965 675.126 -42.9609 519.766 -42.9609 259.143C-182.188 178.664 -460.952 323.526 -460.952 564.963C-460.952 758.112 -212.63 898.492 -133.587 926.66Z" fill="url(#paint4_linear_3183_16564)"/>
</g>
<g opacity="0.61" filter="url(#filter4_f_3183_16564)" style="mix-blend-mode:plus-lighter">
<path d="M19.0833 269.062C20.3895 269.457 21.5037 270.379 22.189 271.591C22.8739 272.806 23.0738 274.212 22.7365 275.533C22.3991 276.854 21.5496 277.992 20.3664 278.73C19.1836 279.465 17.764 279.74 16.4284 279.46C16.4284 279.46 16.4284 279.46 16.4284 279.46C9.0694 277.917 1.71648 276.509 -5.63842 275.337C-28.2453 271.632 -50.8807 270.789 -73.7347 271.895C-184.118 276.277 -286.92 339.35 -340.082 430.443C-343.677 436.502 -347.07 442.675 -350.259 448.958C-353.264 454.839 -358.446 459.175 -364.81 460.93C-371.166 462.689 -378.182 461.724 -384.172 458.327C-390.161 454.931 -394.592 449.406 -396.345 443.048C-398.106 436.686 -397.046 430.013 -393.541 424.415C-393.541 424.415 -393.541 424.415 -393.541 424.415C-389.248 417.503 -384.74 410.755 -380.024 404.175C-309.912 305.035 -190.091 247.725 -73.7749 253.213C-50.0611 254.089 -26.0809 257.069 -3.09667 262.911C4.3841 264.773 11.7667 266.859 19.0833 269.062Z" fill="url(#paint5_radial_3183_16564)"/>
</g>
<g opacity="0.61" filter="url(#filter5_f_3183_16564)">
<path d="M19.4453 267.644C21.1771 268.106 22.6604 269.245 23.5716 270.799C24.4826 272.354 24.7469 274.197 24.3035 275.933C23.8602 277.669 22.7448 279.16 21.1999 280.088C19.6553 281.015 17.8077 281.303 16.0664 280.878C16.0664 280.878 16.0664 280.878 16.0664 280.878C8.78426 279.101 1.52087 277.404 -5.75846 275.923C-28.1039 271.273 -50.7974 269.295 -73.738 270.359C-73.738 270.359 -73.738 270.359 -73.738 270.359C-187.215 274.59 -276.88 363.253 -308.97 450.903C-311.305 456.811 -313.464 462.741 -315.463 468.689C-321.557 485.015 -333.545 497.187 -350.17 501.747C-366.716 506.352 -386.54 502.968 -403.903 493.123C-421.265 483.278 -434.346 468.002 -438.888 451.439C-443.51 434.831 -439.219 418.294 -428.337 404.684C-428.337 404.684 -428.337 404.684 -428.337 404.684C-422.854 397.437 -417.111 390.445 -411.135 383.715C-319.952 281.133 -186.993 249.412 -73.7717 254.749C-73.7719 254.749 -73.7719 254.749 -73.7719 254.749C-50.1443 255.582 -26.2223 257.428 -2.97663 262.324C4.57971 263.878 12.0518 265.674 19.4453 267.644Z" fill="url(#paint6_radial_3183_16564)"/>
</g>
<g opacity="0.2" filter="url(#filter6_f_3183_16564)" style="mix-blend-mode:plus-lighter">
<path d="M49.5102 377.701C11.9074 339.576 -61.4585 330.997 -95.9572 344.406" stroke="url(#paint7_radial_3183_16564)" stroke-width="68.2934" stroke-linecap="round"/>
</g>
</g>
<g opacity="0.12" filter="url(#filter7_f_3183_16564)" style="mix-blend-mode:plus-lighter">
<ellipse cx="200.002" cy="97.562" rx="200.002" ry="97.562" transform="matrix(-1 0 0 1 134.83 342.227)" fill="white" fill-opacity="0.5"/>
</g>
<g opacity="0.5" filter="url(#filter8_f_3183_16564)">
<path d="M26.8121 613.244C23.3633 613.378 20.6146 615.882 20.2022 619.005C19.9588 620.861 19.6495 622.718 19.2723 624.573C18.8951 626.439 18.4541 628.305 17.9453 630.163C17.4384 632.034 16.8657 633.898 16.2311 635.755C15.5945 637.623 14.8961 639.481 14.1358 641.327C13.3755 643.184 12.5553 645.029 11.6733 646.859C10.7913 648.697 9.85135 650.523 8.85158 652.329C7.85381 654.144 6.79818 655.94 5.68666 657.715C4.57514 659.499 3.40975 661.261 2.19047 663C0.973193 664.744 -0.297975 666.464 -1.61902 668.157C-2.94007 669.858 -4.311 671.529 -5.72784 673.171C-7.14467 674.818 -8.60939 676.435 -10.118 678.021C-11.6267 679.608 -13.1772 681.165 -14.7716 682.685C-16.3621 684.209 -17.9944 685.697 -19.6667 687.146C-21.335 688.599 -23.0431 690.014 -24.7852 691.387C-26.5254 692.762 -28.2994 694.096 -30.1074 695.388C-31.9093 696.681 -33.7452 697.928 -35.6091 699.132C-37.4669 700.336 -39.3567 701.494 -41.2704 702.605C-43.1782 703.715 -45.1118 704.778 -47.0675 705.789C-49.0171 706.802 -50.9867 707.764 -52.9783 708.675C-54.9618 709.585 -56.9634 710.441 -58.9809 711.245C-60.9904 712.049 -63.0138 712.798 -65.0513 713.491C-67.0788 714.184 -69.1162 714.82 -71.1656 715.398C-73.2031 715.979 -75.2505 716.499 -77.3019 716.962C-79.3434 717.424 -81.3888 717.828 -83.4362 718.17C-85.4717 718.514 -87.5091 718.797 -89.5465 719.017C-92.9734 719.396 -95.7212 721.898 -95.8683 725.041L-95.9303 726.366L-96.1957 733.269L-96.4072 740.203L-96.5649 747.159L-96.6686 754.133L-96.7145 761.114L-96.7066 768.101L-96.6447 775.08L-96.5269 782.05L-96.3553 789.001L-96.1278 795.926L-95.8465 802.82L-95.5112 809.675L-95.1221 816.484L-94.6791 823.242L-94.1842 829.939L-93.6374 836.573L-93.0387 843.136L-92.3902 849.621L-91.6918 856.022L-90.9434 862.334L-90.1472 868.552L-89.3031 874.669L-88.4111 880.681L-87.4752 886.582L-86.4954 892.367L-85.4717 898.033C-84.833 901.36 -81.9819 903.983 -78.3167 904.484C-78.085 904.516 -77.8531 904.547 -77.6212 904.578C-75.3323 904.874 -73.0375 905.138 -70.7346 905.371C-68.4138 905.596 -66.089 905.789 -63.7562 905.949C-61.4074 906.104 -59.0527 906.224 -56.6939 906.313C-54.3193 906.393 -51.9386 906.442 -49.5559 906.458C-47.1553 906.466 -44.7526 906.442 -42.348 906.384C-39.9274 906.318 -37.5028 906.22 -35.0782 906.089C-32.6397 905.949 -30.1992 905.778 -27.7566 905.573C-25.3001 905.36 -22.8456 905.113 -20.3891 904.834C-17.9206 904.547 -15.4521 904.227 -12.9856 903.872C-10.5072 903.511 -8.0307 903.116 -5.55423 902.689C-3.06779 902.252 -0.58533 901.783 1.89513 901.281C4.38756 900.772 6.87401 900.228 9.35846 899.652C11.8509 899.068 14.3393 898.451 16.8218 897.802C19.3142 897.144 21.8007 896.453 24.2791 895.731C26.7676 895 29.248 894.238 31.7205 893.441C34.2029 892.638 36.6754 891.803 39.1379 890.936C41.6104 890.061 44.0709 889.153 46.5234 888.215C48.9819 887.268 51.4285 886.291 53.865 885.282C56.3075 884.265 58.7381 883.218 61.1567 882.139C63.5793 881.054 65.9899 879.937 68.3866 878.79C70.7892 877.637 73.1759 876.451 75.5486 875.238C77.9253 874.018 80.288 872.767 82.6347 871.487C84.9835 870.201 87.3163 868.884 89.6311 867.54C91.9499 866.191 94.2508 864.811 96.5337 863.403C98.8186 861.99 101.086 860.55 103.332 859.081C105.581 857.608 107.81 856.106 110.02 854.576C112.229 853.043 114.418 851.483 116.585 849.897C118.752 848.306 120.897 846.689 123.02 845.047C125.144 843.402 127.243 841.73 129.32 840.034C131.396 838.333 133.449 836.609 135.477 834.86C137.502 833.109 139.504 831.334 141.479 829.535C143.453 827.735 145.4 825.911 147.322 824.065C149.24 822.218 151.134 820.348 153 818.457C154.859 816.564 156.695 814.649 158.501 812.716C160.303 810.779 162.077 808.824 163.823 806.849C165.563 804.875 167.276 802.88 168.958 800.867C170.636 798.854 172.282 796.822 173.901 794.773C175.513 792.725 177.094 790.659 178.644 788.577C180.189 786.497 181.701 784.4 183.184 782.287C184.659 780.177 186.104 778.052 187.514 775.911C188.919 773.773 190.29 771.621 191.631 769.455C192.962 767.293 194.261 765.117 195.528 762.929C196.786 760.743 198.011 758.546 199.202 756.339C200.386 754.135 201.537 751.92 202.653 749.694C203.758 747.473 204.832 745.244 205.869 743.003C206.901 740.77 207.897 738.526 208.857 736.275C209.809 734.029 210.725 731.776 211.607 729.516C212.479 727.261 213.317 725 214.119 722.733C214.911 720.474 215.669 718.208 216.39 715.937C217.104 713.675 217.781 711.407 218.421 709.136C219.054 706.873 219.649 704.606 220.209 702.336C220.76 700.076 221.275 697.812 221.754 695.546C222.223 693.291 222.656 691.032 223.053 688.774C223.44 686.526 223.793 684.277 224.107 682.027C224.414 679.788 224.685 677.552 224.919 675.313C225.144 673.089 225.332 670.865 225.486 668.641C225.629 666.431 225.737 664.224 225.809 662.016C225.871 659.825 225.899 657.635 225.889 655.448C225.873 653.276 225.819 651.107 225.729 648.943C225.633 646.793 225.5 644.648 225.332 642.507C225.156 640.381 224.945 638.263 224.695 636.148C224.442 634.051 224.153 631.958 223.825 629.872C223.792 629.661 223.757 629.451 223.723 629.24C223.175 625.899 220.295 623.301 216.643 622.718L210.427 621.785L204.079 620.892L197.604 620.039L191.007 619.228L184.294 618.459L177.471 617.734L170.544 617.052L163.52 616.413L156.404 615.822L149.202 615.277L141.922 614.779L134.573 614.328L127.157 613.924L119.684 613.571L112.163 613.264L104.598 613.007L96.9986 612.802L89.3697 612.644L81.7228 612.536L74.0619 612.48L66.397 612.473L58.7361 612.516L51.0832 612.609L43.4503 612.753L35.8413 612.945L28.2662 613.187L26.8121 613.244Z" fill="url(#paint8_radial_3183_16564)"/>
</g>
<g opacity="0.6" filter="url(#filter9_f_3183_16564)">
<path d="M-304.275 673.449C-300.031 683.801 -295.201 693.809 -289.835 703.426C-241.601 790.507 -149.416 842.975 -56.4677 842.232C-56.4677 842.232 -56.4677 842.232 -56.4677 842.232C36.4806 842.974 128.665 790.507 176.9 703.426C182.266 693.809 187.096 683.801 191.34 673.449C189.473 684.48 186.811 695.441 183.366 706.219C153.742 804.354 51.872 881.088 -56.4677 879.305C-56.4677 879.305 -56.4677 879.305 -56.4677 879.305C-164.807 881.088 -266.677 804.354 -296.302 706.219C-299.746 695.441 -302.408 684.48 -304.275 673.449Z" fill="url(#paint9_linear_3183_16564)"/>
</g>
</g>
<g style="mix-blend-mode:multiply">
<mask id="mask1_3183_16564" style="mask-type:alpha" maskUnits="userSpaceOnUse" x="69" y="-75" width="903" height="903">
<circle cx="520.881" cy="376.88" r="451.041" fill="url(#paint10_radial_3183_16564)"/>
</mask>
<g mask="url(#mask1_3183_16564)">
<g filter="url(#filter10_i_3183_16564)">
<circle cx="520.881" cy="377.25" r="451.041" fill="url(#paint11_radial_3183_16564)"/>
<circle cx="520.881" cy="377.25" r="451.041" fill="white" fill-opacity="0.6" style="mix-blend-mode:screen"/>
</g>
<g opacity="0.3" filter="url(#filter11_f_3183_16564)">
<path d="M639.82 -59.6434C639.82 -59.6434 639.82 -59.6434 639.82 -59.6434C630.309 -61.5451 620.811 -63.4201 611.282 -65.0337C582.018 -70.1316 552.28 -71.8962 522.788 -68.3784C522.788 -68.3784 522.788 -68.3784 522.788 -68.3784C378.14 -52.4366 263.467 51.8859 219.874 164.939C216.816 172.513 214.011 180.137 211.45 187.806C203.941 208.087 189.114 223.214 168.488 228.87C147.963 234.583 123.325 230.36 101.735 218.118C80.1448 205.875 63.8724 186.9 58.2384 166.353C52.5032 145.748 57.872 125.258 71.4226 108.403C71.4226 108.403 71.4226 108.403 71.4226 108.403C78.431 99.1941 85.7325 90.2917 93.3041 81.7013C207.382 -48.561 377.454 -98.2135 522.761 -80.8569C522.761 -80.8569 522.761 -80.8569 522.761 -80.8569C552.831 -77.6339 582.717 -74.5081 611.765 -67.3957C621.211 -65.1285 630.561 -62.5343 639.82 -59.6434Z" fill="url(#paint12_radial_3183_16564)"/>
</g>
<g opacity="0.08" filter="url(#filter12_f_3183_16564)" style="mix-blend-mode:plus-lighter">
<path d="M813.193 509.389C804.845 524.846 795.318 539.524 784.766 553.278C721.247 636.789 619.612 683.484 520.558 679.446C446.283 677.228 374.541 647.7 320.666 598.051C260.804 543.54 216.317 467.298 209.515 380.828C206.135 339.667 211.495 297.027 226.623 257.569C232.748 241.539 240.44 226.06 249.595 211.498C249.758 211.238 254.148 213.635 262.74 218.725C254.304 213.388 245.868 208.051 237.431 202.714C245.696 208.323 249.758 211.238 249.595 211.498C240.442 226.06 232.185 241.193 224.952 256.865C207.152 295.376 195.617 337.356 192.309 380.828C184.478 470.892 217.354 569.481 288.055 633.613C350.572 691.44 436.331 723.221 520.558 720.311C633.47 718.116 739.894 651.953 791.447 557.665C800.114 542.148 807.393 525.971 813.193 509.389Z" fill="white"/>
</g>
<g opacity="0.2" style="mix-blend-mode:plus-lighter">
<path d="M376.597 76.8223C424.692 28.0587 518.53 17.0856 562.655 34.2362" stroke="url(#paint13_radial_3183_16564)" stroke-width="87.3498" stroke-linecap="round"/>
</g>
</g>
<g opacity="0.12" filter="url(#filter14_f_3183_16564)" style="mix-blend-mode:plus-lighter">
<ellipse cx="523.279" cy="156.234" rx="255.81" ry="124.785" fill="white" fill-opacity="0.5"/>
</g>
<g opacity="0.5" filter="url(#filter15_f_3183_16564)">
<path d="M405.629 378.09C410.04 378.261 413.556 381.464 414.083 385.458C414.394 387.833 414.79 390.208 415.272 392.58C415.755 394.967 416.319 397.353 416.97 399.73C417.618 402.124 418.351 404.508 419.162 406.883C419.976 409.271 420.87 411.648 421.842 414.009C422.815 416.384 423.864 418.745 424.992 421.085C426.12 423.436 427.322 425.771 428.601 428.081C429.877 430.402 431.227 432.7 432.649 434.971C434.071 437.252 435.561 439.506 437.121 441.73C438.678 443.96 440.304 446.161 441.993 448.326C443.683 450.501 445.436 452.638 447.249 454.739C449.061 456.846 450.934 458.914 452.864 460.942C454.793 462.973 456.777 464.964 458.816 466.908C460.85 468.857 462.938 470.76 465.077 472.614C467.211 474.472 469.395 476.282 471.624 478.038C473.849 479.796 476.118 481.503 478.431 483.155C480.736 484.809 483.084 486.404 485.468 487.944C487.844 489.484 490.261 490.965 492.709 492.386C495.149 493.805 497.622 495.166 500.123 496.459C502.617 497.755 505.136 498.985 507.684 500.15C510.221 501.313 512.781 502.409 515.361 503.437C517.931 504.465 520.519 505.423 523.125 506.31C525.719 507.196 528.325 508.01 530.946 508.749C533.552 509.491 536.171 510.157 538.794 510.75C541.405 511.341 544.022 511.857 546.64 512.294C549.244 512.734 551.85 513.097 554.456 513.378C558.839 513.863 562.353 517.062 562.541 521.082L562.621 522.777L562.96 531.606L563.231 540.475L563.432 549.372L563.565 558.292L563.624 567.221L563.614 576.158L563.535 585.084L563.384 594L563.164 602.89L562.873 611.747L562.514 620.564L562.085 629.333L561.587 638.041L561.02 646.685L560.387 655.251L559.688 663.736L558.922 672.13L558.093 680.425L557.2 688.612L556.242 696.685L555.224 704.638L554.144 712.462L553.003 720.152L551.806 727.7L550.553 735.098L549.244 742.346C548.427 746.601 544.78 749.956 540.092 750.597C539.796 750.637 539.499 750.677 539.203 750.717C536.275 751.096 533.34 751.433 530.395 751.731C527.426 752.02 524.453 752.266 521.469 752.471C518.465 752.668 515.453 752.822 512.436 752.936C509.399 753.038 506.354 753.101 503.306 753.122C500.236 753.131 497.163 753.101 494.087 753.027C490.991 752.943 487.89 752.817 484.789 752.65C481.67 752.471 478.548 752.252 475.424 751.989C472.282 751.717 469.143 751.401 466.001 751.045C462.844 750.677 459.686 750.268 456.532 749.815C453.361 749.352 450.194 748.847 447.026 748.3C443.846 747.742 440.671 747.142 437.498 746.5C434.311 745.849 431.13 745.153 427.953 744.416C424.765 743.669 421.582 742.881 418.407 742.051C415.219 741.209 412.039 740.325 408.869 739.401C405.686 738.466 402.513 737.492 399.351 736.473C396.176 735.445 393.013 734.377 389.864 733.268C386.701 732.149 383.554 730.988 380.417 729.788C377.273 728.576 374.144 727.327 371.027 726.036C367.903 724.736 364.794 723.397 361.701 722.017C358.602 720.629 355.519 719.201 352.453 717.733C349.38 716.258 346.328 714.742 343.293 713.19C340.253 711.63 337.231 710.029 334.23 708.392C331.225 706.747 328.242 705.063 325.281 703.345C322.315 701.619 319.372 699.853 316.452 698.053C313.53 696.246 310.63 694.404 307.756 692.524C304.88 690.64 302.029 688.719 299.203 686.763C296.378 684.802 293.578 682.807 290.806 680.778C288.034 678.743 285.29 676.675 282.575 674.575C279.859 672.47 277.174 670.333 274.517 668.162C271.862 665.988 269.236 663.783 266.643 661.545C264.052 659.305 261.492 657.035 258.965 654.735C256.441 652.432 253.95 650.099 251.492 647.738C249.039 645.375 246.617 642.984 244.23 640.565C241.852 638.144 239.503 635.695 237.194 633.222C234.889 630.745 232.62 628.245 230.386 625.719C228.161 623.193 225.971 620.641 223.819 618.066C221.673 615.491 219.567 612.893 217.497 610.272C215.435 607.653 213.413 605.011 211.43 602.348C209.454 599.687 207.52 597.005 205.623 594.302C203.737 591.604 201.889 588.885 200.085 586.147C198.288 583.412 196.534 580.661 194.819 577.89C193.117 575.125 191.455 572.341 189.834 569.543C188.226 566.747 186.659 563.937 185.135 561.113C183.622 558.294 182.149 555.461 180.722 552.614C179.308 549.774 177.935 546.923 176.608 544.057C175.288 541.201 174.015 538.331 172.787 535.451C171.57 532.579 170.398 529.697 169.27 526.806C168.154 523.922 167.082 521.03 166.056 518.13C165.043 515.241 164.073 512.343 163.152 509.438C162.238 506.544 161.373 503.644 160.554 500.739C159.744 497.845 158.984 494.945 158.267 492.042C157.562 489.151 156.904 486.255 156.291 483.357C155.691 480.473 155.137 477.584 154.629 474.695C154.134 471.82 153.683 468.943 153.282 466.066C152.889 463.203 152.542 460.342 152.243 457.479C151.955 454.634 151.715 451.789 151.518 448.945C151.334 446.119 151.197 443.295 151.105 440.471C151.026 437.669 150.99 434.868 151.003 432.07C151.023 429.293 151.092 426.518 151.207 423.75C151.329 421.001 151.5 418.256 151.715 415.519C151.939 412.8 152.21 410.09 152.529 407.385C152.853 404.703 153.223 402.026 153.642 399.358C153.685 399.089 153.729 398.819 153.773 398.55C154.473 394.276 158.157 390.954 162.828 390.208L170.778 389.015L178.897 387.873L187.18 386.782L195.618 385.744L204.204 384.761L212.931 383.832L221.79 382.96L230.774 382.144L239.876 381.388L249.088 380.69L258.399 380.053L267.799 379.476L277.284 378.96L286.842 378.508L296.462 378.115L306.138 377.787L315.858 377.525L325.615 377.322L335.396 377.185L345.195 377.113L354.998 377.104L364.797 377.159L374.585 377.278L384.348 377.462L394.08 377.708L403.769 378.018L405.629 378.09Z" fill="url(#paint14_radial_3183_16564)"/>
</g>
<g opacity="0.6" filter="url(#filter16_f_3183_16564)">
<path d="M829.102 455.096C823.673 468.336 817.495 481.136 810.632 493.437C748.938 604.817 631.031 671.925 512.146 670.975C512.146 670.975 512.146 670.975 512.146 670.975C393.262 671.925 275.355 604.817 213.661 493.437C206.798 481.136 200.619 468.336 195.191 455.096C197.58 469.205 200.984 483.224 205.39 497.01C243.281 622.528 373.576 720.673 512.146 718.393C512.146 718.393 512.146 718.393 512.146 718.393C650.717 720.673 781.012 622.528 818.903 497.01C823.309 483.224 826.713 469.205 829.102 455.096Z" fill="url(#paint15_linear_3183_16564)"/>
</g>
</g>
</g>
<defs>
<filter id="filter0_i_3183_16564" x="-415.939" y="259.946" width="705.283" height="710.486" filterUnits="userSpaceOnUse" color-interpolation-filters="sRGB">
<feFlood flood-opacity="0" result="BackgroundImageFix"/>
<feBlend mode="normal" in="SourceGraphic" in2="BackgroundImageFix" result="shape"/>
<feColorMatrix in="SourceAlpha" type="matrix" values="0 0 0 0 0 0 0 0 0 0 0 0 0 0 0 0 0 0 127 0" result="hardAlpha"/>
<feOffset dy="5.20331"/>
<feGaussianBlur stdDeviation="26.3418"/>
<feComposite in2="hardAlpha" operator="arithmetic" k2="-1" k3="1"/>
<feColorMatrix type="matrix" values="0 0 0 0 1 0 0 0 0 0.638235 0 0 0 0 0.196078 0 0 0 0.35 0"/>
<feBlend mode="plus-darker" in2="shape" result="effect1_innerShadow_3183_16564"/>
</filter>
<filter id="filter1_f_3183_16564" x="-171.379" y="236.718" width="486.662" height="276.913" filterUnits="userSpaceOnUse" color-interpolation-filters="sRGB">
<feFlood flood-opacity="0" result="BackgroundImageFix"/>
<feBlend mode="normal" in="SourceGraphic" in2="BackgroundImageFix" result="shape"/>
<feGaussianBlur stdDeviation="7.5448" result="effect1_foregroundBlur_3183_16564"/>
</filter>
<filter id="filter2_f_3183_16564" x="-323.58" y="444.387" width="549.797" height="468.303" filterUnits="userSpaceOnUse" color-interpolation-filters="sRGB">
<feFlood flood-opacity="0" result="BackgroundImageFix"/>
<feBlend mode="normal" in="SourceGraphic" in2="BackgroundImageFix" result="shape"/>
<feGaussianBlur stdDeviation="15.8701" result="effect1_foregroundBlur_3183_16564"/>
</filter>
<filter id="filter3_f_3183_16564" x="-568.408" y="129.333" width="632.904" height="904.784" filterUnits="userSpaceOnUse" color-interpolation-filters="sRGB">
<feFlood flood-opacity="0" result="BackgroundImageFix"/>
<feBlend mode="normal" in="SourceGraphic" in2="BackgroundImageFix" result="shape"/>
<feGaussianBlur stdDeviation="53.7285" result="effect1_foregroundBlur_3183_16564"/>
</filter>
<filter id="filter4_f_3183_16564" x="-412.271" y="237.762" width="450.257" height="239.121" filterUnits="userSpaceOnUse" color-interpolation-filters="sRGB">
<feFlood flood-opacity="0" result="BackgroundImageFix"/>
<feBlend mode="normal" in="SourceGraphic" in2="BackgroundImageFix" result="shape"/>
<feGaussianBlur stdDeviation="7.5448" result="effect1_foregroundBlur_3183_16564"/>
</filter>
<filter id="filter5_f_3183_16564" x="-455.818" y="239.095" width="495.421" height="279.77" filterUnits="userSpaceOnUse" color-interpolation-filters="sRGB">
<feFlood flood-opacity="0" result="BackgroundImageFix"/>
<feBlend mode="normal" in="SourceGraphic" in2="BackgroundImageFix" result="shape"/>
<feGaussianBlur stdDeviation="7.5448" result="effect1_foregroundBlur_3183_16564"/>
</filter>
<filter id="filter6_f_3183_16564" x="-145.203" y="289.237" width="243.949" height="137.701" filterUnits="userSpaceOnUse" color-interpolation-filters="sRGB">
<feFlood flood-opacity="0" result="BackgroundImageFix"/>
<feBlend mode="normal" in="SourceGraphic" in2="BackgroundImageFix" result="shape"/>
<feGaussianBlur stdDeviation="7.5448" result="effect1_foregroundBlur_3183_16564"/>
</filter>
<filter id="filter7_f_3183_16564" x="-374.638" y="232.762" width="618.933" height="414.054" filterUnits="userSpaceOnUse" color-interpolation-filters="sRGB">
<feFlood flood-opacity="0" result="BackgroundImageFix"/>
<feBlend mode="normal" in="SourceGraphic" in2="BackgroundImageFix" result="shape"/>
<feGaussianBlur stdDeviation="54.7323" result="effect1_foregroundBlur_3183_16564"/>
</filter>
<filter id="filter8_f_3183_16564" x="-162.328" y="546.859" width="453.832" height="425.213" filterUnits="userSpaceOnUse" color-interpolation-filters="sRGB">
<feFlood flood-opacity="0" result="BackgroundImageFix"/>
<feBlend mode="normal" in="SourceGraphic" in2="BackgroundImageFix" result="shape"/>
<feGaussianBlur stdDeviation="32.8067" result="effect1_foregroundBlur_3183_16564"/>
</filter>
<filter id="filter9_f_3183_16564" x="-339.593" y="638.132" width="566.25" height="276.522" filterUnits="userSpaceOnUse" color-interpolation-filters="sRGB">
<feFlood flood-opacity="0" result="BackgroundImageFix"/>
<feBlend mode="normal" in="SourceGraphic" in2="BackgroundImageFix" result="shape"/>
<feGaussianBlur stdDeviation="9.90255" result="effect1_foregroundBlur_3183_16564"/>
</filter>
<filter id="filter10_i_3183_16564" x="69.8398" y="-73.791" width="902.082" height="908.737" filterUnits="userSpaceOnUse" color-interpolation-filters="sRGB">
<feFlood flood-opacity="0" result="BackgroundImageFix"/>
<feBlend mode="normal" in="SourceGraphic" in2="BackgroundImageFix" result="shape"/>
<feColorMatrix in="SourceAlpha" type="matrix" values="0 0 0 0 0 0 0 0 0 0 0 0 0 0 0 0 0 0 127 0" result="hardAlpha"/>
<feOffset dy="6.65522"/>
<feGaussianBlur stdDeviation="33.6921"/>
<feComposite in2="hardAlpha" operator="arithmetic" k2="-1" k3="1"/>
<feColorMatrix type="matrix" values="0 0 0 0 1 0 0 0 0 0.638235 0 0 0 0 0.196078 0 0 0 0.35 0"/>
<feBlend mode="plus-darker" in2="shape" result="effect1_innerShadow_3183_16564"/>
</filter>
<filter id="filter11_f_3183_16564" x="36.6627" y="-103.5" width="622.458" height="354.181" filterUnits="userSpaceOnUse" color-interpolation-filters="sRGB">
<feFlood flood-opacity="0" result="BackgroundImageFix"/>
<feBlend mode="normal" in="SourceGraphic" in2="BackgroundImageFix" result="shape"/>
<feGaussianBlur stdDeviation="9.65008" result="effect1_foregroundBlur_3183_16564"/>
</filter>
<filter id="filter12_f_3183_16564" x="150.581" y="162.117" width="703.209" height="598.974" filterUnits="userSpaceOnUse" color-interpolation-filters="sRGB">
<feFlood flood-opacity="0" result="BackgroundImageFix"/>
<feBlend mode="normal" in="SourceGraphic" in2="BackgroundImageFix" result="shape"/>
<feGaussianBlur stdDeviation="20.2984" result="effect1_foregroundBlur_3183_16564"/>
</filter>
<filter id="filter14_f_3183_16564" x="127.459" y="-108.561" width="791.64" height="529.59" filterUnits="userSpaceOnUse" color-interpolation-filters="sRGB">
<feFlood flood-opacity="0" result="BackgroundImageFix"/>
<feBlend mode="normal" in="SourceGraphic" in2="BackgroundImageFix" result="shape"/>
<feGaussianBlur stdDeviation="70.0046" result="effect1_foregroundBlur_3183_16564"/>
</filter>
<filter id="filter15_f_3183_16564" x="67.0781" y="293.182" width="580.467" height="543.863" filterUnits="userSpaceOnUse" color-interpolation-filters="sRGB">
<feFlood flood-opacity="0" result="BackgroundImageFix"/>
<feBlend mode="normal" in="SourceGraphic" in2="BackgroundImageFix" result="shape"/>
<feGaussianBlur stdDeviation="41.961" result="effect1_foregroundBlur_3183_16564"/>
</filter>
<filter id="filter16_f_3183_16564" x="150.019" y="409.923" width="724.255" height="353.681" filterUnits="userSpaceOnUse" color-interpolation-filters="sRGB">
<feFlood flood-opacity="0" result="BackgroundImageFix"/>
<feBlend mode="normal" in="SourceGraphic" in2="BackgroundImageFix" result="shape"/>
<feGaussianBlur stdDeviation="12.6657" result="effect1_foregroundBlur_3183_16564"/>
</filter>
<radialGradient id="paint0_radial_3183_16564" cx="0" cy="0" r="1" gradientUnits="userSpaceOnUse" gradientTransform="translate(-35.5 871.5) rotate(-70.301) scale(895.933 535.896)">
<stop stop-color="#E9DEFF"/>
<stop offset="1" stop-color="#FCF5F0"/>
</radialGradient>
<radialGradient id="paint1_radial_3183_16564" cx="0" cy="0" r="1" gradientUnits="userSpaceOnUse" gradientTransform="translate(352.919 328.003) rotate(90) scale(349.254)">
<stop offset="0.125358" stop-color="white"/>
<stop offset="0.898179" stop-color="#E4D7FC"/>
<stop offset="1" stop-color="#C6BADD"/>
</radialGradient>
<radialGradient id="paint2_radial_3183_16564" cx="0" cy="0" r="1" gradientUnits="userSpaceOnUse" gradientTransform="translate(352.919 231.225) rotate(90) scale(388.297 501.764)">
<stop stop-color="#FBF5FF"/>
<stop offset="0.4" stop-color="#E9DEFF"/>
<stop offset="0.706856" stop-color="#EAD7FC"/>
<stop offset="1" stop-color="#F4B8E7"/>
</radialGradient>
<radialGradient id="paint3_radial_3183_16564" cx="0" cy="0" r="1" gradientUnits="userSpaceOnUse" gradientTransform="translate(55.8038 320.762) rotate(28.9476) scale(152.186 152.186)">
<stop stop-color="#FF9D1D"/>
<stop offset="0.635091" stop-color="#FF9D00" stop-opacity="0"/>
</radialGradient>
<linearGradient id="paint4_linear_3183_16564" x1="-251.956" y1="236.79" x2="-251.956" y2="890.903" gradientUnits="userSpaceOnUse">
<stop stop-color="#FFC81A"/>
<stop offset="1" stop-color="#FF6440"/>
</linearGradient>
<radialGradient id="paint5_radial_3183_16564" cx="0" cy="0" r="1" gradientUnits="userSpaceOnUse" gradientTransform="translate(-189.076 289.22) rotate(63.8501) scale(200.708 200.708)">
<stop stop-color="white"/>
<stop offset="1" stop-color="white" stop-opacity="0"/>
</radialGradient>
<radialGradient id="paint6_radial_3183_16564" cx="0" cy="0" r="1" gradientUnits="userSpaceOnUse" gradientTransform="translate(-189.564 358.811) rotate(51.187) scale(141.906 141.906)">
<stop stop-color="white"/>
<stop offset="1" stop-color="white" stop-opacity="0"/>
</radialGradient>
<radialGradient id="paint7_radial_3183_16564" cx="0" cy="0" r="1" gradientTransform="matrix(-82.6989 -14.5551 -49.138 71.3781 -5.17676 338.455)" gradientUnits="userSpaceOnUse">
<stop stop-color="white"/>
<stop offset="1" stop-color="white" stop-opacity="0"/>
</radialGradient>
<radialGradient id="paint8_radial_3183_16564" cx="0" cy="0" r="1" gradientTransform="matrix(141.14 -299.19 -324.493 -143.706 -60.9418 673.612)" gradientUnits="userSpaceOnUse">
<stop offset="0.277411" stop-color="white" stop-opacity="0"/>
<stop offset="0.680727" stop-color="white"/>
<stop offset="1" stop-color="white" stop-opacity="0"/>
</radialGradient>
<linearGradient id="paint9_linear_3183_16564" x1="-56.4678" y1="673.449" x2="-56.4678" y2="860.768" gradientUnits="userSpaceOnUse">
<stop stop-color="#FFEED7"/>
<stop offset="1" stop-color="#FFC2C1"/>
</linearGradient>
<radialGradient id="paint10_radial_3183_16564" cx="0" cy="0" r="1" gradientUnits="userSpaceOnUse" gradientTransform="translate(521.236 345.366) rotate(90) scale(446.708)">
<stop offset="0.125358" stop-color="white"/>
<stop offset="0.898179" stop-color="#E4D7FC"/>
<stop offset="1" stop-color="#C6BADD"/>
</radialGradient>
<radialGradient id="paint11_radial_3183_16564" cx="0" cy="0" r="1" gradientUnits="userSpaceOnUse" gradientTransform="translate(521.236 221.954) rotate(90) scale(496.646 641.774)">
<stop stop-color="#FBF5FF"/>
<stop offset="0.4" stop-color="#E9DEFF"/>
<stop offset="0.706856" stop-color="#EAD7FC"/>
<stop offset="1" stop-color="#F4B8E7"/>
</radialGradient>
<radialGradient id="paint12_radial_3183_16564" cx="0" cy="0" r="1" gradientUnits="userSpaceOnUse" gradientTransform="translate(368.546 3.99571) rotate(151.052) scale(194.651 194.651)">
<stop stop-color="#FF9D1D"/>
<stop offset="0.635091" stop-color="#FF9D00" stop-opacity="0"/>
</radialGradient>
<radialGradient id="paint13_radial_3183_16564" cx="0" cy="0" r="1" gradientTransform="matrix(105.775 -18.6166 62.8493 91.2952 446.544 26.6244)" gradientUnits="userSpaceOnUse">
<stop stop-color="white"/>
<stop offset="1" stop-color="white" stop-opacity="0"/>
</radialGradient>
<radialGradient id="paint14_radial_3183_16564" cx="0" cy="0" r="1" gradientTransform="matrix(-180.523 -382.675 415.038 -183.806 517.869 455.302)" gradientUnits="userSpaceOnUse">
<stop offset="0.277411" stop-color="white" stop-opacity="0"/>
<stop offset="0.680727" stop-color="white"/>
<stop offset="1" stop-color="white" stop-opacity="0"/>
</radialGradient>
<linearGradient id="paint15_linear_3183_16564" x1="512.146" y1="455.096" x2="512.146" y2="694.684" gradientUnits="userSpaceOnUse">
<stop stop-color="#FFEED7"/>
<stop offset="1" stop-color="#FFC2C1"/>
</linearGradient>
<clipPath id="clip0_3183_16564">
<rect width="310" height="744" fill="white"/>
</clipPath>
</defs>
</svg>
